<mxfile host="app.diagrams.net" modified="2022-06-28T06:04:02.535Z" agent="5.0 (Windows NT 10.0; Win64; x64) AppleWebKit/537.36 (KHTML, like Gecko) Chrome/103.0.0.0 Safari/537.36" etag="_wdcFlPx2w6_-hwYF5VD" version="20.0.3" type="github">
  <diagram id="j-rCefn72ytLqk8BoCXE" name="Page-1">
    <mxGraphModel dx="1550" dy="835" grid="1" gridSize="10" guides="1" tooltips="1" connect="1" arrows="1" fold="1" page="1" pageScale="1" pageWidth="1169" pageHeight="827" math="0" shadow="0">
      <root>
        <mxCell id="0" />
        <mxCell id="1" parent="0" />
        <mxCell id="BMvWIDHhbsveti_zvsIt-7" value="" style="shape=cube;whiteSpace=wrap;html=1;boundedLbl=1;backgroundOutline=1;darkOpacity=0.05;darkOpacity2=0.1;" parent="1" vertex="1">
          <mxGeometry x="100" y="530" width="230" height="60" as="geometry" />
        </mxCell>
        <mxCell id="BMvWIDHhbsveti_zvsIt-24" value="" style="shape=cube;whiteSpace=wrap;html=1;boundedLbl=1;backgroundOutline=1;darkOpacity=0.05;darkOpacity2=0.1;" parent="1" vertex="1">
          <mxGeometry x="445" y="261" width="230" height="60" as="geometry" />
        </mxCell>
        <mxCell id="BMvWIDHhbsveti_zvsIt-32" value="" style="shape=cube;whiteSpace=wrap;html=1;boundedLbl=1;backgroundOutline=1;darkOpacity=0.05;darkOpacity2=0.1;" parent="1" vertex="1">
          <mxGeometry x="450" y="120" width="230" height="60" as="geometry" />
        </mxCell>
        <mxCell id="BMvWIDHhbsveti_zvsIt-35" value="" style="shape=cube;whiteSpace=wrap;html=1;boundedLbl=1;backgroundOutline=1;darkOpacity=0.05;darkOpacity2=0.1;fillColor=#d5e8d4;strokeColor=#82b366;" parent="1" vertex="1">
          <mxGeometry x="533" y="140" width="70" height="40" as="geometry" />
        </mxCell>
        <mxCell id="BMvWIDHhbsveti_zvsIt-36" value="&lt;font style=&quot;font-size: 18px&quot;&gt;APP&lt;/font&gt;" style="shape=cube;whiteSpace=wrap;html=1;boundedLbl=1;backgroundOutline=1;darkOpacity=0.05;darkOpacity2=0.1;fillColor=#d5e8d4;strokeColor=#82b366;" parent="1" vertex="1">
          <mxGeometry x="533" y="120" width="70" height="40" as="geometry" />
        </mxCell>
        <mxCell id="BMvWIDHhbsveti_zvsIt-39" value="&lt;div style=&quot;text-align: left&quot;&gt;&lt;span style=&quot;font-size: 10px&quot;&gt;分库分表：&lt;/span&gt;&lt;/div&gt;&lt;font style=&quot;font-size: 10px&quot;&gt;&lt;div style=&quot;text-align: left&quot;&gt;&lt;span&gt;cases&lt;/span&gt;&lt;/div&gt;case_content&lt;br style=&quot;font-size: 10px&quot;&gt;cross_ref_link&lt;br&gt;case_ip_attrs&lt;br&gt;&lt;/font&gt;" style="text;html=1;resizable=0;autosize=1;align=center;verticalAlign=middle;points=[];fillColor=none;strokeColor=none;rounded=0;fontSize=18;fontColor=#000000;" parent="1" vertex="1">
          <mxGeometry x="950" y="231" width="90" height="120" as="geometry" />
        </mxCell>
        <mxCell id="Rm1kZXsYe9PU0bUZ6z79-1" value="newlaw&lt;br&gt;history" style="text;html=1;resizable=0;autosize=1;align=left;verticalAlign=middle;points=[];fillColor=none;strokeColor=none;rounded=0;" parent="1" vertex="1">
          <mxGeometry x="190" y="550" width="60" height="30" as="geometry" />
        </mxCell>
        <mxCell id="Rm1kZXsYe9PU0bUZ6z79-14" value="2.21" style="rounded=0;whiteSpace=wrap;html=1;" parent="1" vertex="1">
          <mxGeometry x="185" y="760" width="120" height="60" as="geometry" />
        </mxCell>
        <mxCell id="crrwPuvogulhCAbJLKEx-3" value="" style="sketch=0;pointerEvents=1;shadow=0;dashed=0;html=1;strokeColor=none;labelPosition=center;verticalLabelPosition=bottom;verticalAlign=top;align=center;fillColor=#515151;shape=mxgraph.mscae.system_center.roles;fontSize=12;" parent="1" vertex="1">
          <mxGeometry x="506" y="266" width="42" height="50" as="geometry" />
        </mxCell>
        <mxCell id="crrwPuvogulhCAbJLKEx-5" value="" style="sketch=0;pointerEvents=1;shadow=0;dashed=0;html=1;strokeColor=none;labelPosition=center;verticalLabelPosition=bottom;verticalAlign=top;align=center;fillColor=#515151;shape=mxgraph.mscae.system_center.roles;fontSize=12;" parent="1" vertex="1">
          <mxGeometry x="598" y="266" width="42" height="50" as="geometry" />
        </mxCell>
        <mxCell id="crrwPuvogulhCAbJLKEx-6" value="M node 2.19" style="sketch=0;aspect=fixed;html=1;points=[];align=center;image;fontSize=12;image=img/lib/mscae/Azure_Database_for_MySQL_servers.svg;" parent="1" vertex="1">
          <mxGeometry x="140.16" y="530" width="44.84" height="59" as="geometry" />
        </mxCell>
        <mxCell id="zrNowhDMcgSoIe2xHNOb-2" value="" style="endArrow=classic;startArrow=classic;html=1;rounded=0;fontSize=12;strokeWidth=2;" edge="1" parent="1">
          <mxGeometry width="50" height="50" relative="1" as="geometry">
            <mxPoint x="577" y="260" as="sourcePoint" />
            <mxPoint x="577" y="181" as="targetPoint" />
          </mxGeometry>
        </mxCell>
        <mxCell id="zrNowhDMcgSoIe2xHNOb-3" value="S node 2.20" style="sketch=0;aspect=fixed;html=1;points=[];align=center;image;fontSize=12;image=img/lib/mscae/Azure_Database_for_MySQL_servers.svg;" vertex="1" parent="1">
          <mxGeometry x="240" y="531" width="44.84" height="59" as="geometry" />
        </mxCell>
        <mxCell id="zrNowhDMcgSoIe2xHNOb-4" value="" style="endArrow=classic;startArrow=classic;html=1;rounded=0;fontSize=12;strokeWidth=2;" edge="1" parent="1">
          <mxGeometry width="50" height="50" relative="1" as="geometry">
            <mxPoint x="559.5" y="414" as="sourcePoint" />
            <mxPoint x="559.5" y="325" as="targetPoint" />
          </mxGeometry>
        </mxCell>
        <mxCell id="zrNowhDMcgSoIe2xHNOb-12" value="" style="line;strokeWidth=2;html=1;fontSize=12;" vertex="1" parent="1">
          <mxGeometry x="200" y="409" width="360" height="10" as="geometry" />
        </mxCell>
        <mxCell id="zrNowhDMcgSoIe2xHNOb-16" value="" style="endArrow=classic;startArrow=classic;html=1;rounded=0;fontSize=12;strokeWidth=2;exitX=0.43;exitY=-0.063;exitDx=0;exitDy=0;exitPerimeter=0;" edge="1" parent="1" source="BMvWIDHhbsveti_zvsIt-7">
          <mxGeometry width="50" height="50" relative="1" as="geometry">
            <mxPoint x="200" y="503" as="sourcePoint" />
            <mxPoint x="200" y="414" as="targetPoint" />
          </mxGeometry>
        </mxCell>
      </root>
    </mxGraphModel>
  </diagram>
</mxfile>
